<mxfile host="65bd71144e">
    <diagram id="mk1Rbe1Xzz3qSYpofZdZ" name="Page-1">
        <mxGraphModel dx="2943" dy="2371" grid="1" gridSize="10" guides="1" tooltips="1" connect="1" arrows="1" fold="1" page="1" pageScale="1" pageWidth="850" pageHeight="1100" math="0" shadow="0">
            <root>
                <mxCell id="0"/>
                <mxCell id="1" parent="0"/>
                <mxCell id="2" value="" style="fontColor=#0066CC;verticalAlign=top;verticalLabelPosition=bottom;labelPosition=center;align=center;html=1;outlineConnect=0;fillColor=#CCCCCC;strokeColor=#6881B3;gradientColor=none;gradientDirection=north;strokeWidth=2;shape=mxgraph.networks.pc;" parent="1" vertex="1">
                    <mxGeometry x="210" y="90" width="100" height="70" as="geometry"/>
                </mxCell>
                <mxCell id="3" value="" style="fontColor=#0066CC;verticalAlign=top;verticalLabelPosition=bottom;labelPosition=center;align=center;html=1;outlineConnect=0;fillColor=#CCCCCC;strokeColor=#6881B3;gradientColor=none;gradientDirection=north;strokeWidth=2;shape=mxgraph.networks.pc;" parent="1" vertex="1">
                    <mxGeometry x="380" y="20" width="100" height="70" as="geometry"/>
                </mxCell>
                <mxCell id="4" value="" style="fontColor=#0066CC;verticalAlign=top;verticalLabelPosition=bottom;labelPosition=center;align=center;html=1;outlineConnect=0;fillColor=#CCCCCC;strokeColor=#6881B3;gradientColor=none;gradientDirection=north;strokeWidth=2;shape=mxgraph.networks.pc;" parent="1" vertex="1">
                    <mxGeometry x="230" y="290" width="100" height="70" as="geometry"/>
                </mxCell>
                <mxCell id="5" value="" style="fontColor=#0066CC;verticalAlign=top;verticalLabelPosition=bottom;labelPosition=center;align=center;html=1;outlineConnect=0;fillColor=#CCCCCC;strokeColor=#6881B3;gradientColor=none;gradientDirection=north;strokeWidth=2;shape=mxgraph.networks.pc;" parent="1" vertex="1">
                    <mxGeometry x="530" y="300" width="100" height="70" as="geometry"/>
                </mxCell>
                <mxCell id="6" value="" style="fontColor=#0066CC;verticalAlign=top;verticalLabelPosition=bottom;labelPosition=center;align=center;html=1;outlineConnect=0;fillColor=#CCCCCC;strokeColor=#6881B3;gradientColor=none;gradientDirection=north;strokeWidth=2;shape=mxgraph.networks.pc;" parent="1" vertex="1">
                    <mxGeometry x="570" y="110" width="100" height="70" as="geometry"/>
                </mxCell>
                <mxCell id="7" value="&lt;font style=&quot;font-size: 23px;&quot;&gt;HUB&lt;/font&gt;" style="rounded=1;whiteSpace=wrap;html=1;strokeWidth=3;" parent="1" vertex="1">
                    <mxGeometry x="370" y="190" width="120" height="60" as="geometry"/>
                </mxCell>
                <mxCell id="10" value="" style="endArrow=none;html=1;strokeWidth=3;fontSize=23;exitX=1;exitY=0.07;exitDx=0;exitDy=0;exitPerimeter=0;entryX=0;entryY=1;entryDx=0;entryDy=0;" parent="1" source="4" target="7" edge="1">
                    <mxGeometry width="50" height="50" relative="1" as="geometry">
                        <mxPoint x="400" y="240" as="sourcePoint"/>
                        <mxPoint x="450" y="190" as="targetPoint"/>
                    </mxGeometry>
                </mxCell>
                <mxCell id="11" value="" style="endArrow=none;html=1;strokeWidth=3;fontSize=23;exitX=0;exitY=0;exitDx=0;exitDy=0;exitPerimeter=0;entryX=1;entryY=1;entryDx=0;entryDy=0;" parent="1" source="5" target="7" edge="1">
                    <mxGeometry width="50" height="50" relative="1" as="geometry">
                        <mxPoint x="340" y="324.9" as="sourcePoint"/>
                        <mxPoint x="403.03999999999996" y="261.98" as="targetPoint"/>
                    </mxGeometry>
                </mxCell>
                <mxCell id="12" value="" style="endArrow=none;html=1;strokeWidth=3;fontSize=23;exitX=1;exitY=0;exitDx=0;exitDy=0;entryX=0;entryY=0.85;entryDx=0;entryDy=0;entryPerimeter=0;" parent="1" source="7" target="6" edge="1">
                    <mxGeometry width="50" height="50" relative="1" as="geometry">
                        <mxPoint x="550" y="320" as="sourcePoint"/>
                        <mxPoint x="470" y="260" as="targetPoint"/>
                    </mxGeometry>
                </mxCell>
                <mxCell id="13" value="" style="endArrow=none;html=1;strokeWidth=3;fontSize=23;exitX=0.95;exitY=1;exitDx=0;exitDy=0;exitPerimeter=0;entryX=0;entryY=0;entryDx=0;entryDy=0;" parent="1" source="2" target="7" edge="1">
                    <mxGeometry width="50" height="50" relative="1" as="geometry">
                        <mxPoint x="560" y="330" as="sourcePoint"/>
                        <mxPoint x="480" y="270" as="targetPoint"/>
                    </mxGeometry>
                </mxCell>
                <mxCell id="14" value="" style="endArrow=none;html=1;strokeWidth=3;fontSize=23;exitX=0.5;exitY=0;exitDx=0;exitDy=0;" parent="1" source="7" target="3" edge="1">
                    <mxGeometry width="50" height="50" relative="1" as="geometry">
                        <mxPoint x="500" y="200" as="sourcePoint"/>
                        <mxPoint x="600" y="179.5" as="targetPoint"/>
                    </mxGeometry>
                </mxCell>
                <mxCell id="26" value="" style="verticalLabelPosition=bottom;verticalAlign=top;html=1;shape=mxgraph.basic.star;strokeWidth=3;fontSize=23;" parent="1" vertex="1">
                    <mxGeometry x="974.26" y="116" width="189.48" height="180" as="geometry"/>
                </mxCell>
                <mxCell id="27" value="" style="fontColor=#0066CC;verticalAlign=top;verticalLabelPosition=bottom;labelPosition=center;align=center;html=1;outlineConnect=0;fillColor=#CCCCCC;strokeColor=#6881B3;gradientColor=none;gradientDirection=north;strokeWidth=2;shape=mxgraph.networks.pc;" parent="1" vertex="1">
                    <mxGeometry x="879" y="141" width="100" height="70" as="geometry"/>
                </mxCell>
                <mxCell id="28" value="" style="fontColor=#0066CC;verticalAlign=top;verticalLabelPosition=bottom;labelPosition=center;align=center;html=1;outlineConnect=0;fillColor=#CCCCCC;strokeColor=#6881B3;gradientColor=none;gradientDirection=north;strokeWidth=2;shape=mxgraph.networks.pc;" parent="1" vertex="1">
                    <mxGeometry x="1013" y="46" width="100" height="70" as="geometry"/>
                </mxCell>
                <mxCell id="29" value="" style="fontColor=#0066CC;verticalAlign=top;verticalLabelPosition=bottom;labelPosition=center;align=center;html=1;outlineConnect=0;fillColor=#CCCCCC;strokeColor=#6881B3;gradientColor=none;gradientDirection=north;strokeWidth=2;shape=mxgraph.networks.pc;" parent="1" vertex="1">
                    <mxGeometry x="913" y="280" width="100" height="70" as="geometry"/>
                </mxCell>
                <mxCell id="30" value="" style="fontColor=#0066CC;verticalAlign=top;verticalLabelPosition=bottom;labelPosition=center;align=center;html=1;outlineConnect=0;fillColor=#CCCCCC;strokeColor=#6881B3;gradientColor=none;gradientDirection=north;strokeWidth=2;shape=mxgraph.networks.pc;" parent="1" vertex="1">
                    <mxGeometry x="1130" y="290" width="100" height="70" as="geometry"/>
                </mxCell>
                <mxCell id="31" value="" style="fontColor=#0066CC;verticalAlign=top;verticalLabelPosition=bottom;labelPosition=center;align=center;html=1;outlineConnect=0;fillColor=#CCCCCC;strokeColor=#6881B3;gradientColor=none;gradientDirection=north;strokeWidth=2;shape=mxgraph.networks.pc;" parent="1" vertex="1">
                    <mxGeometry x="1161.74" y="124" width="100" height="70" as="geometry"/>
                </mxCell>
                <mxCell id="32" value="" style="endArrow=none;html=1;strokeWidth=3;fontSize=23;exitX=0.307;exitY=0.611;exitDx=0;exitDy=0;exitPerimeter=0;entryX=0.5;entryY=0.76;entryDx=0;entryDy=0;entryPerimeter=0;" parent="1" source="26" target="26" edge="1">
                    <mxGeometry width="50" height="50" relative="1" as="geometry">
                        <mxPoint x="1070" y="250" as="sourcePoint"/>
                        <mxPoint x="1120" y="200" as="targetPoint"/>
                    </mxGeometry>
                </mxCell>
                <mxCell id="33" value="" style="endArrow=none;html=1;strokeWidth=3;fontSize=23;exitX=0.384;exitY=0.366;exitDx=0;exitDy=0;exitPerimeter=0;entryX=0.308;entryY=0.608;entryDx=0;entryDy=0;entryPerimeter=0;" parent="1" source="26" target="26" edge="1">
                    <mxGeometry width="50" height="50" relative="1" as="geometry">
                        <mxPoint x="1042.43036" y="235.98000000000002" as="sourcePoint"/>
                        <mxPoint x="1079" y="262.8" as="targetPoint"/>
                    </mxGeometry>
                </mxCell>
                <mxCell id="34" value="" style="endArrow=none;html=1;strokeWidth=3;fontSize=23;exitX=0.381;exitY=0.364;exitDx=0;exitDy=0;exitPerimeter=0;entryX=0.612;entryY=0.367;entryDx=0;entryDy=0;entryPerimeter=0;" parent="1" source="26" target="26" edge="1">
                    <mxGeometry width="50" height="50" relative="1" as="geometry">
                        <mxPoint x="1057.02032" y="191.88" as="sourcePoint"/>
                        <mxPoint x="1042.6198399999998" y="235.44" as="targetPoint"/>
                    </mxGeometry>
                </mxCell>
                <mxCell id="35" value="" style="endArrow=none;html=1;strokeWidth=3;fontSize=23;exitX=0.5;exitY=0.76;exitDx=0;exitDy=0;exitPerimeter=0;entryX=0.69;entryY=0.608;entryDx=0;entryDy=0;entryPerimeter=0;" parent="1" source="26" target="26" edge="1">
                    <mxGeometry width="50" height="50" relative="1" as="geometry">
                        <mxPoint x="1056.45188" y="191.52000000000004" as="sourcePoint"/>
                        <mxPoint x="1100.22176" y="192.06" as="targetPoint"/>
                    </mxGeometry>
                </mxCell>
                <mxCell id="36" value="" style="endArrow=none;html=1;strokeWidth=3;fontSize=23;exitX=0.619;exitY=0.363;exitDx=0;exitDy=0;exitPerimeter=0;entryX=0.69;entryY=0.614;entryDx=0;entryDy=0;entryPerimeter=0;" parent="1" source="26" target="26" edge="1">
                    <mxGeometry width="50" height="50" relative="1" as="geometry">
                        <mxPoint x="1079" y="262.8" as="sourcePoint"/>
                        <mxPoint x="1115.0012" y="235.44" as="targetPoint"/>
                    </mxGeometry>
                </mxCell>
                <mxCell id="37" value="" style="endArrow=none;html=1;strokeWidth=3;fontSize=23;exitX=0;exitY=0.85;exitDx=0;exitDy=0;exitPerimeter=0;entryX=0;entryY=0;entryDx=0;entryDy=0;entryPerimeter=0;" parent="1" source="27" target="29" edge="1">
                    <mxGeometry width="50" height="50" relative="1" as="geometry">
                        <mxPoint x="1042.43036" y="235.98000000000002" as="sourcePoint"/>
                        <mxPoint x="1079" y="262.80000000000007" as="targetPoint"/>
                    </mxGeometry>
                </mxCell>
                <mxCell id="38" value="" style="endArrow=none;html=1;strokeWidth=3;fontSize=23;exitX=0.95;exitY=1;exitDx=0;exitDy=0;exitPerimeter=0;entryX=0;entryY=0.85;entryDx=0;entryDy=0;entryPerimeter=0;" parent="1" source="29" target="30" edge="1">
                    <mxGeometry width="50" height="50" relative="1" as="geometry">
                        <mxPoint x="900" y="182.5" as="sourcePoint"/>
                        <mxPoint x="923" y="290" as="targetPoint"/>
                    </mxGeometry>
                </mxCell>
                <mxCell id="39" value="" style="endArrow=none;html=1;strokeWidth=3;fontSize=23;exitX=0.95;exitY=1;exitDx=0;exitDy=0;exitPerimeter=0;entryX=1;entryY=0.07;entryDx=0;entryDy=0;entryPerimeter=0;" parent="1" source="31" target="30" edge="1">
                    <mxGeometry width="50" height="50" relative="1" as="geometry">
                        <mxPoint x="1018" y="360" as="sourcePoint"/>
                        <mxPoint x="1140" y="359.5" as="targetPoint"/>
                    </mxGeometry>
                </mxCell>
                <mxCell id="40" value="" style="endArrow=none;html=1;strokeWidth=3;fontSize=23;exitX=1;exitY=0.07;exitDx=0;exitDy=0;exitPerimeter=0;entryX=1;entryY=0.07;entryDx=0;entryDy=0;entryPerimeter=0;" parent="1" source="31" target="28" edge="1">
                    <mxGeometry width="50" height="50" relative="1" as="geometry">
                        <mxPoint x="1266.74" y="204" as="sourcePoint"/>
                        <mxPoint x="1200" y="110" as="targetPoint"/>
                    </mxGeometry>
                </mxCell>
                <mxCell id="41" value="" style="endArrow=none;html=1;strokeWidth=3;fontSize=23;exitX=0;exitY=0;exitDx=0;exitDy=0;exitPerimeter=0;entryX=0;entryY=0;entryDx=0;entryDy=0;entryPerimeter=0;" parent="1" source="27" target="28" edge="1">
                    <mxGeometry width="50" height="50" relative="1" as="geometry">
                        <mxPoint x="1271.74" y="138.89999999999992" as="sourcePoint"/>
                        <mxPoint x="1123" y="63.89999999999992" as="targetPoint"/>
                    </mxGeometry>
                </mxCell>
                <mxCell id="42" value="STAR" style="text;html=1;strokeColor=none;fillColor=none;align=center;verticalAlign=middle;whiteSpace=wrap;rounded=0;strokeWidth=3;fontSize=23;" parent="1" vertex="1">
                    <mxGeometry x="400" y="-40" width="60" height="30" as="geometry"/>
                </mxCell>
                <mxCell id="43" value="MESH" style="text;html=1;strokeColor=none;fillColor=none;align=center;verticalAlign=middle;whiteSpace=wrap;rounded=0;strokeWidth=3;fontSize=23;" parent="1" vertex="1">
                    <mxGeometry x="1033" y="-30" width="60" height="30" as="geometry"/>
                </mxCell>
                <mxCell id="44" value="" style="fontColor=#0066CC;verticalAlign=top;verticalLabelPosition=bottom;labelPosition=center;align=center;html=1;outlineConnect=0;fillColor=#CCCCCC;strokeColor=#6881B3;gradientColor=none;gradientDirection=north;strokeWidth=2;shape=mxgraph.networks.pc;fontSize=23;" parent="1" vertex="1">
                    <mxGeometry x="1920" y="200" width="100" height="70" as="geometry"/>
                </mxCell>
                <mxCell id="45" value="" style="fontColor=#0066CC;verticalAlign=top;verticalLabelPosition=bottom;labelPosition=center;align=center;html=1;outlineConnect=0;fillColor=#CCCCCC;strokeColor=#6881B3;gradientColor=none;gradientDirection=north;strokeWidth=2;shape=mxgraph.networks.pc;fontSize=23;" parent="1" vertex="1">
                    <mxGeometry x="1720" y="200" width="100" height="70" as="geometry"/>
                </mxCell>
                <mxCell id="46" value="" style="fontColor=#0066CC;verticalAlign=top;verticalLabelPosition=bottom;labelPosition=center;align=center;html=1;outlineConnect=0;fillColor=#CCCCCC;strokeColor=#6881B3;gradientColor=none;gradientDirection=north;strokeWidth=2;shape=mxgraph.networks.pc;fontSize=23;" parent="1" vertex="1">
                    <mxGeometry x="1520" y="200" width="100" height="70" as="geometry"/>
                </mxCell>
                <mxCell id="47" value="" style="fontColor=#0066CC;verticalAlign=top;verticalLabelPosition=bottom;labelPosition=center;align=center;html=1;outlineConnect=0;fillColor=#CCCCCC;strokeColor=#6881B3;gradientColor=none;gradientDirection=north;strokeWidth=2;shape=mxgraph.networks.pc;fontSize=23;" parent="1" vertex="1">
                    <mxGeometry x="1800" y="40" width="100" height="70" as="geometry"/>
                </mxCell>
                <mxCell id="48" value="" style="fontColor=#0066CC;verticalAlign=top;verticalLabelPosition=bottom;labelPosition=center;align=center;html=1;outlineConnect=0;fillColor=#CCCCCC;strokeColor=#6881B3;gradientColor=none;gradientDirection=north;strokeWidth=2;shape=mxgraph.networks.pc;fontSize=23;" parent="1" vertex="1">
                    <mxGeometry x="1600" y="40" width="100" height="70" as="geometry"/>
                </mxCell>
                <mxCell id="49" value="" style="endArrow=none;html=1;strokeWidth=3;fontSize=23;" parent="1" edge="1">
                    <mxGeometry width="50" height="50" relative="1" as="geometry">
                        <mxPoint x="1520" y="160" as="sourcePoint"/>
                        <mxPoint x="2040" y="160" as="targetPoint"/>
                    </mxGeometry>
                </mxCell>
                <mxCell id="50" value="" style="endArrow=classic;startArrow=classic;html=1;strokeWidth=1;fontSize=23;exitX=0.5;exitY=0.07;exitDx=0;exitDy=0;exitPerimeter=0;" parent="1" source="46" edge="1">
                    <mxGeometry width="50" height="50" relative="1" as="geometry">
                        <mxPoint x="1740" y="270" as="sourcePoint"/>
                        <mxPoint x="1570" y="160" as="targetPoint"/>
                    </mxGeometry>
                </mxCell>
                <mxCell id="51" value="" style="endArrow=classic;startArrow=classic;html=1;strokeWidth=1;fontSize=23;entryX=0.5;entryY=0.07;entryDx=0;entryDy=0;entryPerimeter=0;" parent="1" target="45" edge="1">
                    <mxGeometry width="50" height="50" relative="1" as="geometry">
                        <mxPoint x="1770" y="160" as="sourcePoint"/>
                        <mxPoint x="1580" y="170" as="targetPoint"/>
                    </mxGeometry>
                </mxCell>
                <mxCell id="52" value="" style="endArrow=classic;startArrow=classic;html=1;strokeWidth=1;fontSize=23;" parent="1" target="44" edge="1">
                    <mxGeometry width="50" height="50" relative="1" as="geometry">
                        <mxPoint x="1970" y="160" as="sourcePoint"/>
                        <mxPoint x="1780" y="214.9000000000001" as="targetPoint"/>
                    </mxGeometry>
                </mxCell>
                <mxCell id="53" value="" style="endArrow=classic;startArrow=classic;html=1;strokeWidth=1;fontSize=23;exitX=0.585;exitY=1.065;exitDx=0;exitDy=0;exitPerimeter=0;" parent="1" source="48" edge="1">
                    <mxGeometry width="50" height="50" relative="1" as="geometry">
                        <mxPoint x="1980" y="170" as="sourcePoint"/>
                        <mxPoint x="1659" y="160" as="targetPoint"/>
                    </mxGeometry>
                </mxCell>
                <mxCell id="54" value="" style="endArrow=classic;startArrow=classic;html=1;strokeWidth=1;fontSize=23;exitX=0.5;exitY=1;exitDx=0;exitDy=0;exitPerimeter=0;" parent="1" source="47" edge="1">
                    <mxGeometry width="50" height="50" relative="1" as="geometry">
                        <mxPoint x="1668.5" y="124.54999999999995" as="sourcePoint"/>
                        <mxPoint x="1850" y="160" as="targetPoint"/>
                    </mxGeometry>
                </mxCell>
                <mxCell id="55" value="BUS" style="text;html=1;strokeColor=none;fillColor=none;align=center;verticalAlign=middle;whiteSpace=wrap;rounded=0;strokeWidth=3;fontSize=23;" parent="1" vertex="1">
                    <mxGeometry x="1720" y="-30" width="60" height="30" as="geometry"/>
                </mxCell>
                <mxCell id="56" value="Menggunakan kabel tunggal yang menghubungkan semua node" style="text;html=1;strokeColor=none;fillColor=none;align=center;verticalAlign=middle;whiteSpace=wrap;rounded=0;strokeWidth=3;fontSize=23;" parent="1" vertex="1">
                    <mxGeometry x="1560" y="296" width="420" height="80" as="geometry"/>
                </mxCell>
                <mxCell id="57" value="Menggunakan perangkat Hub atau Switch untuk menghubungkan semua node dalam jaringan" style="text;html=1;strokeColor=none;fillColor=none;align=center;verticalAlign=middle;whiteSpace=wrap;rounded=0;strokeWidth=3;fontSize=23;" parent="1" vertex="1">
                    <mxGeometry x="250" y="410" width="420" height="80" as="geometry"/>
                </mxCell>
                <mxCell id="58" value="Menghubungkan Setiap node secara langsung tanpa pelantara" style="text;html=1;strokeColor=none;fillColor=none;align=center;verticalAlign=middle;whiteSpace=wrap;rounded=0;strokeWidth=3;fontSize=23;" parent="1" vertex="1">
                    <mxGeometry x="853" y="400" width="420" height="80" as="geometry"/>
                </mxCell>
                <mxCell id="59" value="Menghubungkan semua node dalam bentuk linkaran" style="text;html=1;strokeColor=none;fillColor=none;align=center;verticalAlign=middle;whiteSpace=wrap;rounded=0;strokeWidth=3;fontSize=23;" parent="1" vertex="1">
                    <mxGeometry x="-450" y="405" width="420" height="80" as="geometry"/>
                </mxCell>
                <mxCell id="60" value="TREE&lt;br&gt;Gabungan dari topologi Bus dan Star" style="text;html=1;strokeColor=none;fillColor=none;align=center;verticalAlign=middle;whiteSpace=wrap;rounded=0;strokeWidth=3;fontSize=23;" parent="1" vertex="1">
                    <mxGeometry x="890" y="-230" width="420" height="80" as="geometry"/>
                </mxCell>
                <mxCell id="61" value="HYBRID&lt;br&gt;Gabungan dari dua atau lebih Topologi jaringan yang berbeda" style="text;html=1;strokeColor=none;fillColor=none;align=center;verticalAlign=middle;whiteSpace=wrap;rounded=0;strokeWidth=3;fontSize=23;" parent="1" vertex="1">
                    <mxGeometry x="-180" y="-150" width="420" height="80" as="geometry"/>
                </mxCell>
                <mxCell id="62" value="" style="fontColor=#0066CC;verticalAlign=top;verticalLabelPosition=bottom;labelPosition=center;align=center;html=1;outlineConnect=0;fillColor=#CCCCCC;strokeColor=#6881B3;gradientColor=none;gradientDirection=north;strokeWidth=2;shape=mxgraph.networks.pc;fontSize=23;" parent="1" vertex="1">
                    <mxGeometry x="-460" y="195" width="100" height="70" as="geometry"/>
                </mxCell>
                <mxCell id="63" value="" style="fontColor=#0066CC;verticalAlign=top;verticalLabelPosition=bottom;labelPosition=center;align=center;html=1;outlineConnect=0;fillColor=#CCCCCC;strokeColor=#6881B3;gradientColor=none;gradientDirection=north;strokeWidth=2;shape=mxgraph.networks.pc;fontSize=23;" parent="1" vertex="1">
                    <mxGeometry x="-140" y="195" width="100" height="70" as="geometry"/>
                </mxCell>
                <mxCell id="64" value="" style="fontColor=#0066CC;verticalAlign=top;verticalLabelPosition=bottom;labelPosition=center;align=center;html=1;outlineConnect=0;fillColor=#CCCCCC;strokeColor=#6881B3;gradientColor=none;gradientDirection=north;strokeWidth=2;shape=mxgraph.networks.pc;fontSize=23;" parent="1" vertex="1">
                    <mxGeometry x="-300" y="305" width="100" height="70" as="geometry"/>
                </mxCell>
                <mxCell id="65" value="" style="fontColor=#0066CC;verticalAlign=top;verticalLabelPosition=bottom;labelPosition=center;align=center;html=1;outlineConnect=0;fillColor=#CCCCCC;strokeColor=#6881B3;gradientColor=none;gradientDirection=north;strokeWidth=2;shape=mxgraph.networks.pc;fontSize=23;" parent="1" vertex="1">
                    <mxGeometry x="-300" y="71" width="100" height="70" as="geometry"/>
                </mxCell>
                <mxCell id="66" value="" style="endArrow=none;html=1;strokeWidth=2;fontSize=23;entryX=0;entryY=0.5;entryDx=0;entryDy=0;entryPerimeter=0;exitX=0.5;exitY=0.07;exitDx=0;exitDy=0;exitPerimeter=0;" parent="1" source="62" target="65" edge="1">
                    <mxGeometry width="50" height="50" relative="1" as="geometry">
                        <mxPoint x="-330" y="265" as="sourcePoint"/>
                        <mxPoint x="-280" y="215" as="targetPoint"/>
                    </mxGeometry>
                </mxCell>
                <mxCell id="67" value="" style="endArrow=none;html=1;strokeWidth=2;fontSize=23;entryX=0;entryY=0.5;entryDx=0;entryDy=0;entryPerimeter=0;exitX=0.5;exitY=1;exitDx=0;exitDy=0;exitPerimeter=0;" parent="1" source="62" target="64" edge="1">
                    <mxGeometry width="50" height="50" relative="1" as="geometry">
                        <mxPoint x="-430" y="209.9000000000001" as="sourcePoint"/>
                        <mxPoint x="-290" y="116" as="targetPoint"/>
                    </mxGeometry>
                </mxCell>
                <mxCell id="68" value="" style="endArrow=none;html=1;strokeWidth=2;fontSize=23;entryX=0.5;entryY=1;entryDx=0;entryDy=0;entryPerimeter=0;exitX=1;exitY=0.5;exitDx=0;exitDy=0;exitPerimeter=0;" parent="1" source="64" target="63" edge="1">
                    <mxGeometry width="50" height="50" relative="1" as="geometry">
                        <mxPoint x="-430" y="275" as="sourcePoint"/>
                        <mxPoint x="-290" y="350" as="targetPoint"/>
                    </mxGeometry>
                </mxCell>
                <mxCell id="69" value="" style="endArrow=none;html=1;strokeWidth=2;fontSize=23;entryX=0.5;entryY=0.07;entryDx=0;entryDy=0;entryPerimeter=0;exitX=1;exitY=0.5;exitDx=0;exitDy=0;exitPerimeter=0;" parent="1" source="65" target="63" edge="1">
                    <mxGeometry width="50" height="50" relative="1" as="geometry">
                        <mxPoint x="-190" y="350" as="sourcePoint"/>
                        <mxPoint x="-60" y="275" as="targetPoint"/>
                    </mxGeometry>
                </mxCell>
                <mxCell id="70" value="RING" style="text;html=1;strokeColor=none;fillColor=none;align=center;verticalAlign=middle;whiteSpace=wrap;rounded=0;strokeWidth=3;fontSize=23;" parent="1" vertex="1">
                    <mxGeometry x="-450" y="-15" width="420" height="80" as="geometry"/>
                </mxCell>
                <mxCell id="72" value="" style="endArrow=none;html=1;strokeWidth=3;fontSize=23;entryX=0.5;entryY=0;entryDx=0;entryDy=0;" edge="1" parent="1" source="60" target="42">
                    <mxGeometry width="50" height="50" relative="1" as="geometry">
                        <mxPoint x="440" y="200" as="sourcePoint"/>
                        <mxPoint x="440" y="100" as="targetPoint"/>
                    </mxGeometry>
                </mxCell>
                <mxCell id="73" value="" style="endArrow=none;html=1;strokeWidth=3;fontSize=23;entryX=1;entryY=1;entryDx=0;entryDy=0;exitX=0;exitY=0;exitDx=0;exitDy=0;" edge="1" parent="1" source="55" target="60">
                    <mxGeometry width="50" height="50" relative="1" as="geometry">
                        <mxPoint x="931.3333333333335" y="-140" as="sourcePoint"/>
                        <mxPoint x="440" y="-30" as="targetPoint"/>
                    </mxGeometry>
                </mxCell>
            </root>
        </mxGraphModel>
    </diagram>
</mxfile>